HIERARCHY
ROOT root
{
	OFFSET	0	13.1	24.9
	CHANNELS 6  Xposition Yposition Zposition Xrotation Yrotation Zrotation
	JOINT spine_1
	{
		OFFSET	0	9.99999	0
		CHANNELS 3  Xrotation Yrotation Zrotation
		JOINT spine_2
		{
			OFFSET	0	112	-10
			CHANNELS 3  Xrotation Yrotation Zrotation
			JOINT spine_3
			{
				OFFSET	0	206.5	19.3
				CHANNELS 3  Xrotation Yrotation Zrotation
				JOINT spine_4
				{
					OFFSET	0	110.4	14.6
					CHANNELS 3  Xrotation Yrotation Zrotation
					JOINT neck_1
					{
						OFFSET	0	71.8	-50.3
						CHANNELS 3  Xrotation Yrotation Zrotation
						JOINT neck_2
						{
							OFFSET	0	86.2	-25.8
							CHANNELS 3  Xrotation Yrotation Zrotation
							JOINT head_ee
							{
								OFFSET	0	179.8	-8.7
								CHANNELS 3  Xrotation Yrotation Zrotation
								End Site
								{
									OFFSET	1	0	0
								}
							}
						}
					}
					JOINT left_clavicle
					{
						OFFSET	-43.2	22.4	-70.8
						CHANNELS 3  Xrotation Yrotation Zrotation
						JOINT left_shoulder
						{
							OFFSET	-93.9	-5.79999	48.7
							CHANNELS 3  Xrotation Yrotation Zrotation
							JOINT left_elbow
							{
								OFFSET	-291.4	-30.8	15.2
								CHANNELS 3  Xrotation Yrotation Zrotation
								JOINT left_lowarm_twist
								{
									OFFSET	-110.7	-3.89999	13.6
									CHANNELS 3  Xrotation Yrotation Zrotation
									JOINT left_hand
									{
										OFFSET	-110.7	-3.89999	13.6
										CHANNELS 3  Xrotation Yrotation Zrotation
										JOINT left_ee
										{
											OFFSET	-80.8	-5.10001	12.1
											CHANNELS 3  Xrotation Yrotation Zrotation
											End Site
											{
												OFFSET	1	0	0
											}
										}
									}
								}
							}
						}
					}
					JOINT right_clavicle
					{
						OFFSET	43.2	22.4	-70.8
						CHANNELS 3  Xrotation Yrotation Zrotation
						JOINT right_shoulder
						{
							OFFSET	93.9	-5.79999	48.7
							CHANNELS 3  Xrotation Yrotation Zrotation
							JOINT right_elbow
							{
								OFFSET	291.4	-30.8	15.2
								CHANNELS 3  Xrotation Yrotation Zrotation
								JOINT right_lowarm_twist
								{
									OFFSET	110.7	-3.89999	13.6
									CHANNELS 3  Xrotation Yrotation Zrotation
									JOINT right_hand
									{
										OFFSET	110.7	-3.89999	13.6
										CHANNELS 3  Xrotation Yrotation Zrotation
										JOINT right_ee
										{
											OFFSET	80.8	-5.10001	12.1
											CHANNELS 3  Xrotation Yrotation Zrotation
											End Site
											{
												OFFSET	1	0	0
											}
										}
									}
								}
							}
						}
					}
				}
			}
		}
	}
	JOINT left_hip
	{
		OFFSET	-82.8	-127.5	0.300001
		CHANNELS 3  Xrotation Yrotation Zrotation
		JOINT left_knee
		{
			OFFSET	-28.2	-396.7	2.2
			CHANNELS 3  Xrotation Yrotation Zrotation
			JOINT left_ankle
			{
				OFFSET	-11.7	-411.3	35.4
				CHANNELS 3  Xrotation Yrotation Zrotation
				JOINT left_toes
				{
					OFFSET	0	-60	-88.6
					CHANNELS 3  Xrotation Yrotation Zrotation
					JOINT left_foot_ee
					{
						OFFSET	-22.5	-16.5	-42.2
						CHANNELS 3  Xrotation Yrotation Zrotation
						End Site
						{
							OFFSET	1	0	0
						}
					}
				}
			}
		}
	}
	JOINT right_hip
	{
		OFFSET	82.8	-127.5	0.300001
		CHANNELS 3  Xrotation Yrotation Zrotation
		JOINT right_knee
		{
			OFFSET	28.2	-396.7	2.2
			CHANNELS 3  Xrotation Yrotation Zrotation
			JOINT right_ankle
			{
				OFFSET	11.7	-411.3	35.4
				CHANNELS 3  Xrotation Yrotation Zrotation
				JOINT right_toes
				{
					OFFSET	0	-60	-88.6
					CHANNELS 3  Xrotation Yrotation Zrotation
					JOINT right_foot_ee
					{
						OFFSET	22.5	-16.5	-42.2
						CHANNELS 3  Xrotation Yrotation Zrotation
						End Site
						{
							OFFSET	1	0	0
						}
					}
				}
			}
		}
	}
}
MOTION
Frames: 13
Frame Time: 0.02
2222.16 685.568 -1269.8 -20.4649 54.6452 14.7995 3.16889 0.364188 3.07133 3.17412 0.168109 3.08825 3.18132 -0.314679 3.07679 3.16815 0.174952 3.08787 -12.872 11.9686 -2.19105 -13.2496 24.131 1.56982 -0.0 0.0 -0.0 -6.51044 13.6717 -9.1909 11.4294 -18.7558 58.8721 9.52624 -77.9822 7.71786 -12.2758 -0.590522 1.45123 1.16212 -4.14713 6.07977 -0.0 0.0 -0.0 9.62025 7.5586 -19.0272 -48.9877 40.0385 -64.7245 0.473789 13.2085 -0.0548554 39.0515 0.300851 4.88424 0.709403 -29.2324 -15.3492 0.0 0.0 0.0 -22.7786 53.694 19.39 1.82437 -0.0794141 -0.268673 19.5078 -30.0385 -3.34829 17.7863 -0.0 -0.0 -0.0 0.0 -0.0 50.5669 39.6774 -19.8938 -2.25184 -0.0861457 -0.334822 -18.3493 -22.7377 -2.84127 20.8785 -0.0 -0.0 0.0 0.0 0.0 
2208.85 684.766 -1274.42 -21.6653 54.8972 15.9103 3.18856 0.362978 2.88105 3.19316 0.178992 2.89829 3.20056 -0.273334 2.89092 3.18894 0.186466 2.89782 -14.1361 12.2326 -2.78375 -14.6338 25.0247 1.39636 -0.0 0.0 -0.0 -6.58871 14.2796 -9.14902 11.1182 -19.0393 59.2624 9.62159 -78.0968 7.81115 -12.6 -0.610278 1.48771 0.853365 -2.44204 4.70302 -0.0 0.0 -0.0 9.62407 7.95867 -19.0342 -48.1352 40.3703 -64.8615 0.472881 13.1841 -0.0546479 39.216 0.309112 4.90358 0.816821 -29.2896 -15.9682 0.0 0.0 0.0 -23.0693 52.5215 19.5839 3.03242 -0.136701 -0.445162 21.0814 -30.1638 -3.59104 19.3938 -0.0 -0.0 -0.0 0.0 -0.0 52.8289 39.1094 -21.0132 -6.27514 -0.207036 -0.940316 -21.7581 -22.1114 -3.36443 21.5905 -0.0 -0.0 0.0 0.0 0.0 
2195.91 679.012 -1281.05 -22.4624 55.275 16.8178 3.31029 0.340724 2.74508 3.31447 0.165425 2.76119 3.3208 -0.259652 2.75393 3.31026 0.178368 2.76038 -14.2077 12.4658 -1.43226 -14.7111 24.6587 2.76829 -0.0 0.0 -0.0 -6.93122 14.5922 -9.6359 11.2069 -19.5697 59.2229 9.76539 -78.2655 7.95189 -12.6051 -0.610591 1.48828 0.977518 -1.33819 5.99529 -0.0 0.0 -0.0 9.58756 7.65155 -18.9566 -47.3625 40.5262 -65.227 0.443678 12.3959 -0.0481828 40.0107 0.349819 4.99671 1.01766 -29.2519 -17.0893 0.0 0.0 0.0 -24.2167 51.4925 19.6893 4.3376 -0.20277 -0.634469 22.204 -30.6049 -3.77857 19.6766 -0.0 -0.0 -0.0 0.0 -0.0 53.951 39.0435 -21.9602 -8.77434 -0.260606 -1.32006 -20.3308 -21.2078 -3.13105 23.9693 -0.0 -0.0 0.0 0.0 0.0 
2185.48 675.527 -1282.76 -23.4138 55.6832 17.7405 3.41076 0.433767 2.69113 3.41476 0.26171 2.71325 3.42549 -0.152067 2.72159 3.41527 0.279505 2.71148 -14.8662 13.6254 -1.63303 -15.5409 27.0148 3.17681 -0.0 0.0 -0.0 -7.53231 16.1254 -10.1659 12.3434 -20.4448 60.8491 10.3309 -78.8852 8.5062 -12.8943 -0.628393 1.52073 0.490221 2.03393 4.11282 -0.0 0.0 -0.0 9.76929 7.4164 -19.3483 -46.2578 40.6844 -65.3355 0.331349 9.32163 -0.0270138 39.5276 0.324917 4.94016 0.987562 -29.3889 -16.9578 0.0 0.0 0.0 -22.6698 51.1268 18.5255 4.05879 -0.188294 -0.594153 24.4008 -30.7546 -4.10321 21.5354 -0.0 -0.0 -0.0 0.0 -0.0 54.8457 38.8852 -21.9005 -10.5477 -0.288545 -1.59072 -18.3085 -15.5266 -2.76998 24.138 -0.0 -0.0 0.0 0.0 0.0 
2167.46 675.137 -1289.87 -25.1594 55.7106 19.6089 3.55471 0.43072 2.54287 3.55826 0.268092 2.56511 3.56865 -0.116867 2.57642 3.55951 0.291361 2.56257 -13.3413 14.2088 -2.45257 -13.941 28.5698 2.20831 -0.0 0.0 -0.0 -8.31242 17.0961 -11.1312 12.899 -21.2026 62.3959 9.30373 -77.7059 7.50034 -12.4183 -0.599179 1.46728 0.331332 1.98675 3.03634 -0.0 0.0 -0.0 9.59163 7.77109 -18.965 -46.0546 40.6792 -65.393 0.348057 9.7828 -0.0297864 40.6748 0.384827 5.0741 1.42412 -29.4282 -19.4543 0.0 0.0 0.0 -20.4494 50.2205 16.4912 2.83504 -0.127086 -0.416408 25.0911 -30.5835 -4.19079 22.1412 -0.0 -0.0 -0.0 0.0 -0.0 54.9489 40.0525 -22.1093 -11.5309 -0.300422 -1.74113 -11.5199 -16.887 -1.73842 24.4846 -0.0 -0.0 0.0 0.0 0.0 
2155.28 680.333 -1293.41 -26.3175 56.0577 20.7191 3.6545 0.334633 2.53347 3.65806 0.172797 2.54962 3.66402 -0.204643 2.54726 3.65502 0.200084 2.54763 -13.2449 13.9331 -2.91069 -13.8151 28.3233 1.65091 -0.0 0.0 -0.0 -8.65593 17.2788 -11.6339 12.4664 -21.4732 62.8513 8.95896 -77.2519 7.16377 -13.0859 -0.640275 1.54217 0.219038 4.57933 3.35916 -0.0 0.0 -0.0 9.87116 7.45475 -19.5681 -45.4347 40.7995 -64.1294 0.381389 10.6989 -0.0357128 40.0679 0.352798 5.00339 1.19724 -29.3513 -18.1361 0.0 0.0 0.0 -19.349 50.0238 15.5581 1.95634 -0.085491 -0.28801 24.5034 -31.0773 -4.1355 22.462 -0.0 -0.0 -0.0 0.0 -0.0 55.8012 39.2201 -22.3312 -13.5092 -0.316488 -2.04422 -13.6423 -16.6059 -2.06191 25.7246 -0.0 -0.0 0.0 0.0 0.0 
2140.13 684.974 -1297.18 -26.8447 55.3724 21.4001 3.72516 0.499207 2.43301 3.72839 0.343424 2.45983 3.74152 -0.0191189 2.48359 3.73311 0.373238 2.45548 -13.6367 14.0632 -2.84728 -14.2585 28.542 1.86698 -0.0 0.0 -0.0 -8.88611 17.5399 -11.9192 12.3784 -21.811 63.5731 8.10694 -75.9727 6.33485 -13.2128 -0.648183 1.55635 0.180449 5.60957 3.52731 -0.0 0.0 -0.0 10.0666 7.46178 -19.9907 -45.3962 40.8545 -62.8664 0.380727 10.6808 -0.0355898 41.295 0.418328 5.14601 1.36008 -29.5463 -19.1171 0.0 0.0 0.0 -17.6531 50.2613 14.6306 1.37668 -0.0591336 -0.202973 26.9483 -31.1161 -4.47651 23.2706 -0.0 -0.0 -0.0 0.0 -0.0 55.8765 39.6579 -22.7946 -13.6797 -0.317383 -2.07037 -16.6008 -13.7801 -2.50112 24.638 -0.0 -0.0 0.0 0.0 0.0 
2121.31 687.956 -1302.13 -27.4367 55.1183 21.9203 3.7342 0.490818 2.43078 3.73743 0.335194 2.45706 3.75019 -0.02649 2.47967 3.74179 0.36534 2.45277 -13.2123 14.0606 -3.40401 -13.7954 28.8682 1.21996 -0.0 0.0 -0.0 -9.16628 18.1118 -12.1669 11.7684 -22.0928 64.1825 7.4204 -74.741 5.67057 -13.194 -0.64701 1.55425 0.107438 6.28179 3.32409 -0.0 0.0 -0.0 10.0519 7.29582 -19.9584 -45.5043 40.8662 -61.9853 0.403012 11.2903 -0.0398365 41.4384 0.426187 5.16259 1.40155 -29.5121 -19.346 0.0 0.0 0.0 -16.4659 49.7675 13.7247 0.381037 -0.0158778 -0.0563171 27.3336 -31.1811 -4.53235 23.5991 -0.0 -0.0 -0.0 0.0 -0.0 55.5987 40.066 -23.0385 -14.2356 -0.31976 -2.15562 -15.5428 -13.1083 -2.33765 25.0291 -0.0 -0.0 0.0 0.0 0.0 
2106.56 694.146 -1302.94 -27.7224 54.6848 21.9712 3.86602 0.573173 2.39469 3.86911 0.419677 2.42628 3.88522 0.0674615 2.46136 3.87706 0.455226 2.41987 -11.7702 13.6741 -4.07716 -12.1728 28.5291 0.0403552 -0.0 0.0 -0.0 -8.95181 18.3365 -11.7318 10.6507 -22.1449 64.796 6.66998 -73.1259 4.94939 -13.3433 -0.65635 1.57092 0.0394443 6.96652 3.16076 -0.0 0.0 -0.0 10.282 7.45537 -20.4578 -44.036 41.3355 -61.083 0.369357 10.3688 -0.0335129 41.5628 0.433035 5.17694 1.18312 -29.2099 -18.0176 0.0 0.0 0.0 -12.803 48.3495 11.2337 -3.9444 0.142188 0.588526 28.0059 -31.1223 -4.61844 23.8981 -0.0 -0.0 -0.0 0.0 -0.0 54.8834 41.019 -22.8384 -14.7604 -0.321244 -2.23612 -12.3131 -15.8221 -1.85514 26.5149 -0.0 -0.0 0.0 0.0 0.0 
2087.95 699.925 -1305.26 -27.5026 53.8492 21.6081 3.86547 0.605975 2.31467 3.86834 0.4575 2.34852 3.88556 0.116092 2.38982 3.87793 0.491959 2.34154 -11.4386 13.6887 -5.80317 -11.7882 29.6603 -1.71622 -0.0 0.0 -0.0 -9.20839 19.8462 -11.5712 9.49428 -22.0573 65.266 6.08418 -71.6127 4.39106 -13.2096 -0.647985 1.556 0.0516659 5.69664 2.7185 -0.0 0.0 -0.0 9.97324 7.20322 -19.7879 -43.8996 41.4136 -59.8211 0.426854 11.9396 -0.0446367 41.905 0.45204 5.21638 1.22791 -28.9122 -18.1932 0.0 0.0 0.0 -10.2463 47.3848 9.18247 -10.324 0.285482 1.55654 28.4022 -30.5268 -4.63438 23.8776 -0.0 -0.0 -0.0 0.0 -0.0 53.0936 42.2144 -22.3632 -14.571 -0.320793 -2.20708 -8.9222 -14.7299 -1.33562 28.1666 -0.0 -0.0 0.0 0.0 0.0 
2074.91 699.774 -1305.99 -28.0579 53.6117 21.9638 4.00869 0.667613 2.30504 4.0115 0.519625 2.34283 4.03113 0.184529 2.39263 4.02358 0.559981 2.33351 -11.006 13.4427 -6.03954 -11.2876 29.3513 -2.1485 -0.0 0.0 -0.0 -9.16612 19.867 -11.4962 8.7857 -22.333 65.6212 5.73747 -70.5864 4.06303 -13.3475 -0.656617 1.57139 -0.00261687 7.02829 2.91203 -0.0 0.0 -0.0 9.81313 7.88485 -19.4426 -41.6464 42.1684 -60.0607 0.395517 11.0856 -0.0383824 41.9286 0.453358 5.21909 1.14973 -28.5913 -17.6576 0.0 0.0 0.0 -6.48819 46.5525 7.11379 -14.6413 0.320972 2.21785 28.8488 -30.2468 -4.67547 24.1536 -0.0 -0.0 -0.0 0.0 -0.0 53.4636 42.2805 -22.5376 -15.7944 -0.322011 -2.39478 -7.88948 -15.4077 -1.1808 28.6584 -0.0 -0.0 0.0 0.0 0.0 
2066.13 700.196 -1312.83 -28.4566 52.9173 21.8582 4.04154 0.624139 2.39291 4.0446 0.470653 2.42775 4.06274 0.125406 2.46974 4.0546 0.513766 2.41899 -11.6084 14.1573 -4.17663 -12.0266 29.504 0.0521164 -0.0 0.0 -0.0 -10.2335 21.3071 -12.5938 7.83593 -22.2934 65.5503 5.98056 -71.3172 4.29281 -13.6733 -0.677153 1.60767 0.114803 4.96094 2.82987 -0.0 0.0 -0.0 9.80573 7.9807 -19.4264 -41.0524 42.4017 -59.623 0.513889 14.2824 -0.0643837 42.1521 0.465907 5.24478 1.13441 -27.8514 -17.3631 0.0 0.0 0.0 -4.00221 45.7412 5.78099 -17.3718 0.317667 2.63674 30.5076 -30.0025 -4.87023 24.7322 -0.0 -0.0 -0.0 0.0 -0.0 53.251 42.7299 -23.0076 -15.7073 -0.322057 -2.38141 -6.49726 -15.7952 -0.971093 29.2157 -0.0 -0.0 0.0 0.0 0.0 
2056.49 700.474 -1315.01 -29.3116 53.6464 23.1592 4.11924 0.523754 2.30043 4.1221 0.376351 2.32907 4.13565 0.0488007 2.35876 4.12813 0.420609 2.32149 -10.3373 13.787 -5.88232 -10.5656 29.8975 -2.09124 -0.0 0.0 -0.0 -10.2394 21.093 -12.6942 7.05305 -23.1598 65.9892 5.43492 -69.5959 3.77855 -13.2776 -0.652236 1.56359 0.12337 4.69528 2.77678 -0.0 0.0 -0.0 9.90901 7.89533 -19.6501 -39.1897 43.0604 -59.3919 0.492895 13.7214 -0.0593041 42.872 0.507012 5.3272 1.11142 -28.3277 -17.3645 0.0 0.0 0.0 -1.75689 43.1062 3.66339 -19.6726 0.299391 2.98926 30.0554 -28.7669 -4.74104 24.1874 -0.0 -0.0 -0.0 0.0 -0.0 52.8268 42.903 -22.7211 -16.1805 -0.321563 -2.45401 -5.51945 -15.7272 -0.823458 29.0504 -0.0 -0.0 0.0 0.0 0.0 
